A suspenseful drama about a young couple on a road trip who get caught in the midst of a worldwide gas shortage. 

IMDB rating: 4.1/10 (from 328 users)

CAST:

Ashley C. Williams.........Piper
Jon Carlo..................Dell
Barry McBrien..............Hotel Manager
John Woodruff..............Cal
Peter Alexandrou...........Gas Thief
Kent R. Williams...........Robber #1
Ronald Thomas..............Robber #2
Niecy Cerise...............Elise
John Michael...............Camper
Nicholas Neyeloff..........Passenger 

Format                           : Matroska
File size                        : 650 MiB
Duration                         : 1h 21mn
Overall bit rate                 : 1 115 Kbps
Encoded date                     : UTC 2011-09-29 19:52:07
Writing application              : mkvmerge v4.9.1 ('Ich will') creado el Jul 11 2011 23:53:15
Writing library                  : libebml v1.2.1 + libmatroska v1.1.1

Video
ID                               : 1
Format                           : AVC
Format/Info                      : Advanced Video Codec
Format profile                   : Main@L3.0
Format settings, CABAC           : Yes
Format settings, ReFrames        : 4 frames
Muxing mode                      : Container profile=Unknown@3.0
Codec ID                         : V_MPEG4/ISO/AVC
Duration                         : 1h 21mn
Bit rate                         : 964 Kbps
Nominal bit rate                 : 984 Kbps
Width                            : 624 pixels
Height                           : 352 pixels
Display aspect ratio             : 16:9
Frame rate mode                  : Variable
Frame rate                       : 23.976 fps
Resolution                       : 8 bits
Colorimetry                      : 4:2:0
Scan type                        : Progressive
Bits/(Pixel*Frame)               : 0.183
Stream size                      : 562 MiB (86%)
Writing library                  : x264 core 112


Audio
ID                               : 2
Format                           : AC-3
Format/Info                      : Audio Coding 3
Codec ID                         : A_AC3
Duration                         : 1h 21mn
Bit rate mode                    : Constant
Bit rate                         : 128 Kbps
Channel(s)                       : 2 channels
Channel positions                : Front: L R
Sampling rate                    : 48.0 KHz
Stream size                      : 74.7 MiB (11%)
Language                         : ENGLISH

Text(subtitles)
ID                               : 3
Format                           : VobSub
Codec ID                         : S_VOBSUB
Codec ID/Info                    : The same subtitle format used on DVDs
Language                         : ROMANIAN

Recommended player :VLC media player....http://www.videolan.org/vlc/

SEED UNTIL YOU BLEED